<?xml version="1.0" encoding="UTF-8" standalone="no"?>
<!DOCTYPE svg PUBLIC "-//W3C//DTD SVG 20010904//EN"
              "http://www.w3.org/TR/2001/REC-SVG-20010904/DTD/svg10.dtd">

<svg xmlns="http://www.w3.org/2000/svg"
     width="0.2in" height="0.377778in"
     viewBox="0 0 18 34">
  <path id="Imported Path"
        fill="#C9FC50" stroke="black" stroke-width="1"
        d="M 9.43,1.75
           C 9.43,1.75 9.00,1.00 9.00,1.00
             9.00,1.00 8.57,1.75 8.57,1.75
             8.57,1.75 1.64,13.75 1.64,13.75
             1.64,13.75 1.21,14.50 1.21,14.50
             1.21,14.50 2.07,14.50 2.07,14.50
             2.07,14.50 15.93,14.50 15.93,14.50
             15.93,14.50 16.79,14.50 16.79,14.50
             16.79,14.50 16.36,13.75 16.36,13.75
             16.36,13.75 9.43,1.75 9.43,1.75 Z
           M 14.51,15.00
           C 14.51,15.00 14.05,18.32 14.05,18.32
             13.73,20.63 12.92,22.86 11.68,24.84
             11.68,24.84 11.68,24.84 11.68,24.84
             10.51,26.69 9.73,28.76 9.37,30.91
             9.37,30.91 9.05,32.83 9.05,32.83M 3.51,15.00
           C 3.51,15.00 3.87,18.35 3.87,18.35
             4.12,20.69 4.93,22.92 6.24,24.87
             6.24,24.87 6.24,24.87 6.24,24.87
             7.47,26.70 8.26,28.77 8.56,30.95
             8.56,30.95 8.83,32.88 8.83,32.88" />
</svg>
