<?xml version="1.0" encoding="UTF-8" standalone="no"?>
<!DOCTYPE svg PUBLIC "-//W3C//DTD SVG 20010904//EN"
              "http://www.w3.org/TR/2001/REC-SVG-20010904/DTD/svg10.dtd">

<svg xmlns="http://www.w3.org/2000/svg"
     width="0.2in" height="0.366667in"
     viewBox="0 0 18 33">
  <path id="Imported Path"
        fill="#C9FC50" stroke="black" stroke-width="1"
        d="M 16.50,0.50
           C 16.50,0.50 16.50,15.50 16.50,15.50
             16.50,15.50 1.50,15.50 1.50,15.50
             1.50,15.50 1.50,0.50 1.50,0.50
             1.50,0.50 16.50,0.50 16.50,0.50 Z
           M 14.51,14.00
           C 14.51,14.00 14.05,17.32 14.05,17.32
             13.73,19.63 12.92,21.86 11.68,23.84
             11.68,23.84 11.68,23.84 11.68,23.84
             10.51,25.69 9.73,27.76 9.37,29.91
             9.37,29.91 9.05,31.83 9.05,31.83M 3.51,14.00
           C 3.51,14.00 3.87,17.35 3.87,17.35
             4.12,19.69 4.93,21.92 6.24,23.87
             6.24,23.87 6.24,23.87 6.24,23.87
             7.47,25.70 8.26,27.77 8.56,29.95
             8.56,29.95 8.83,31.88 8.83,31.88" />
</svg>
